<?xml version="1.0" encoding="UTF-8" standalone="no"?>
<svg width="50px" height="64px" viewBox="0 0 50 64" version="1.1" xmlns="http://www.w3.org/2000/svg" xmlns:xlink="http://www.w3.org/1999/xlink" xmlns:sketch="http://www.bohemiancoding.com/sketch/ns">
    <!-- Generator: Sketch 3.3.3 (12072) - http://www.bohemiancoding.com/sketch -->
    <title>Flat Page</title>
    <desc>Created with Sketch.</desc>
    <defs></defs>
    <g id="Page-1" stroke="none" stroke-width="1" fill="none" fill-rule="evenodd" sketch:type="MSPage">
        <g id="Artboard-1" sketch:type="MSArtboardGroup" transform="translate(-268.000000, -156.000000)">
            <g id="Flat-Page" sketch:type="MSLayerGroup" transform="translate(261.000000, 156.000000)">
                <rect id="Bounding-Box" fill-opacity="0" fill="#FFFFFF" sketch:type="MSShapeGroup" x="0" y="0" width="64" height="64"></rect>
                <g id="Page" transform="translate(7.000000, 0.000000)" stroke="#4990E2" stroke-width="2" sketch:type="MSShapeGroup">
                    <path d="M0,1.00528717 C0,0.450082397 0.442529321,0 1.00973606,0 L33.9902639,0 C34.5479258,0 35,0.448920205 35,1.00748397 L35,13.992516 C35,14.5489341 35.4489202,15 36.007484,15 L48.992516,15 C49.5489341,15 50,15.4537918 50,16.0009977 L50,62.9990023 C50,63.551838 49.5524743,64 49.001231,64 L0.998768955,64 C0.447164093,64 0,63.5571375 0,62.9947128 L0,1.00528717 Z" id="Rectangle-9"></path>
                    <path d="M49,16 L34,1" id="Line" stroke-linecap="round"></path>
                </g>
            </g>
        </g>
    </g>
</svg>