<?xml version="1.0" encoding="UTF-8" standalone="no"?>
<svg width="89px" height="48px" viewBox="0 0 89 48" version="1.1" xmlns="http://www.w3.org/2000/svg" xmlns:xlink="http://www.w3.org/1999/xlink" xmlns:sketch="http://www.bohemiancoding.com/sketch/ns">
    <!-- Generator: Sketch 3.3.3 (12072) - http://www.bohemiancoding.com/sketch -->
    <title>NT</title>
    <desc>Created with Sketch.</desc>
    <defs></defs>
    <g id="Page-1" stroke="none" stroke-width="1" fill="none" fill-rule="evenodd" sketch:type="MSPage">
        <g id="Artboard-1" sketch:type="MSArtboardGroup" transform="translate(-110.000000, -131.000000)" fill="#000000">
            <path d="M156.955078,131 L144.769531,131 L144.769531,132.617188 C146.644541,132.617188 148.249993,132.863279 149.585938,133.355469 C150.921882,133.847659 151.806638,134.515621 152.240234,135.359375 C152.67383,136.203129 152.890625,137.679677 152.890625,139.789062 L152.890625,168.300781 L124.660156,131 L110.597656,131 L110.597656,132.617188 C113.152357,132.617188 114.798824,132.792967 115.537109,133.144531 C116.275394,133.496096 116.814451,134.292963 117.154297,135.535156 C117.494142,136.77735 117.664062,139.226544 117.664062,142.882812 L117.664062,168.160156 C117.664062,171.042983 117.552735,172.87109 117.330078,173.644531 C117.107421,174.417973 116.398443,175.138669 115.203125,175.806641 C114.007807,176.474613 112.273449,176.890624 110,177.054688 L110,178.671875 L127.789062,178.671875 L127.789062,177.054688 C125.2578,177.054688 123.359381,176.69141 122.09375,175.964844 C120.828119,175.238278 120.060548,174.441411 119.791016,173.574219 C119.521483,172.707027 119.386719,170.902357 119.386719,168.160156 L119.386719,135.078125 L152.890625,178.671875 L154.769531,178.671875 L154.613281,140.316406 C154.613281,138.277334 154.771483,136.830082 155.087891,135.974609 C155.404298,135.119136 156.142572,134.386722 157.302734,133.777344 C158.328225,133.238702 159.687895,132.874031 161.381775,132.683321 C162.269513,132.639232 163.30892,132.617188 164.5,132.617188 L171.566406,132.617188 L171.566406,166.261719 C171.566406,170.246114 171.455079,172.783198 171.232422,173.873047 C171.009765,174.962896 170.505863,175.765622 169.720703,176.28125 C168.935543,176.796878 167.523448,177.054688 165.484375,177.054688 L163.023438,177.054688 L163.023438,178.671875 L186.789062,178.671875 L186.789062,177.054688 L184.46875,177.054688 C182.335927,177.054688 180.882816,176.77344 180.109375,176.210938 C179.335934,175.648435 178.861329,174.781256 178.685547,173.609375 C178.509765,172.437494 178.421875,169.9883 178.421875,166.261719 L178.421875,132.617188 L186.085938,132.617188 C188.687513,132.617188 190.527338,132.775389 191.605469,133.091797 C192.683599,133.408205 193.691402,134.263665 194.628906,135.658203 C195.566411,137.052741 196.304685,139.320297 196.84375,142.460938 L198.355469,142.460938 L198.109375,131 L156.955078,131 Z" id="NT" sketch:type="MSShapeGroup"></path>
        </g>
    </g>
</svg>